<svg xmlns="http://www.w3.org/2000/svg" width="265mm" height="265mm" viewBox="0 0 265 265"><circle cx="132.5" cy="132.5" r="132.5" style="fill:#fff;fill-rule:evenodd;stroke-width:.264583"/><g style="display:inline"><path d="M122.9 264.9a112 112 0 0 1-39.7-9 113.3 113.3 0 0 1-18.7-9.6 65.7 65.7 0 0 1-11-7.4 67.4 67.4 0 0 0-4.7-3.5l-3.2-2.8c-9.7-8.4-19.4-19.6-18.2-21 2.6-2.9 15.6-6.1 27-6.8 5.3-.3 5.4-.2 10.3 4.3a74.3 74.3 0 0 0 11.6 8.7 121.5 121.5 0 0 0 18.8 10c19.2 8 44.9 9.7 63.3 4.2a95.1 95.1 0 0 0 15-5.6 102 102 0 0 0 23.4-14.8c8-7.4 12-8.5 24.3-6.3l6.5 1c7.2 1.2 12 2.6 12 3.7a129.7 129.7 0 0 1-63.2 47.7c-5 2.3-18.7 5.5-27.6 6.6-4.6.5-20.4.9-26 .6zm8.2-48.5-2.4-1-3-1.8c-2-1.2-2-.8-2.2-7.8-.2-7.3-.8-13.9-1.7-18.8a182.6 182.6 0 0 0-17.3-51.7 82.9 82.9 0 0 0-6.4-10.7c-3.6-6-11.5-14-14.4-14.5-1.5-.2-5.3 4.8-5.3 7 0 .6-2.1 3.3-3.1 3.8-3 1.5-9.2-.6-14-4.8-2.5-2.2-2.5-3-.2-9.1 8.6-22.1 8.5-23-3.4-27-6.5-2.3-6.7-2.8-2.8-7.8 3.1-4 3.1-4 11.4-3.9a2606 2606 0 0 0 36 .7c1.1.2 1.1.2 5.8 10a149.7 149.7 0 0 0 7.3 13.4 59.2 59.2 0 0 1 3.3 6l3 4.8c5 8.2 12.5 18.8 13.2 18.8l2-1.8a11.6 11.6 0 0 1 16.5.2c3 3 3.9 5.4 2.7 8.1-1 2-4.4 9-5.3 10.4-.8 1.4-.8 1.4-.8 6.5a50 50 0 0 0 4.8 23.2 128.6 128.6 0 0 1 4 11.6 43 43 0 0 1 2.5 9.8c.2 2-.3 2.7-6.3 6.4a65.1 65.1 0 0 0-17.9 16.4c-2.1 3.6-3.4 4.4-6 3.6zm53.3-9.9c-1.4-1.3-3.7-4-4.4-5.4-.9-1.8-.5-2.3 3.9-6.2l2.4-2.2 2.8-2.6c6.3-5.5 7.2-7 7.2-12.4 0-4.8-1.5-9.1-7.5-21.2a50.3 50.3 0 0 1-3.5-8 191.5 191.5 0 0 1-5-11 151.5 151.5 0 0 1-4.6-9.9l-1.2-2c-2.5-4.6-3-4.8-9-5.2-5.4-.3-7-1-9.7-3.8-4-4.4-4.1-7.6-.2-12.4l1.6-2.3c.4-.6 1-1.4 1.4-1.7 5.5-6 6.6-7.9 6.6-12 0-4.9-1.1-5.8-11.6-10.6-5-2.3-5.8-3.7-4-7.1 2-3.8 4.8-5.6 7.2-4.6 4 1.7 6.8 1.9 23.8 1.4 16.7-.5 18.4.1 17.9 6.5a60 60 0 0 0 5.8 30.1 213.4 213.4 0 0 0 7.2 15.8 288.4 288.4 0 0 1 6.3 13.3 951.1 951.1 0 0 1 7.8 17.4 329.8 329.8 0 0 0 5 13.4c2.1 8 8.6 20.7 11.7 23.2 7.7 6 8 6.5 5.9 10l-2.5 4.3c-.3.7-.7 1.2-1 1.2-.4 0-5.9-1.6-8-2.3a60.7 60.7 0 0 0-36.9 1.2c-3.4 1.2-10.3 4.2-13.1 5.7-1 .6-1 .5-2.3-.6zm-161.9 0c-1.5-1.6-4.2-6-4.2-6.8 0-.2.7-1 1.5-1.7a45.8 45.8 0 0 0 10.7-13.5 127 127 0 0 0 9.9-22c3-8.5 3.4-9.7 5-15 3.2-9.9 3.5-11 5-14.8 4.8-12.3 9.2-13.6 18.4-5.6 3.3 2.9 3.4 4 1.1 10.4l-1.6 4.6-1.8 4.6a160.7 160.7 0 0 0-4.4 9.7 70.4 70.4 0 0 0-3.5 9.2c-4.2 13.6-3.7 18.2 3 24.3 3.6 3.3 5 5.9 4.2 7.4-.5 1.1-.7 1.1-11.6 1.4-15.4.5-19.8 1.4-24.8 5.2-4.1 3.2-5.8 3.8-6.9 2.6zm-8.7-15.4a43 43 0 0 1-4.9-10.9c-.4-1.2-1-3.3-1.6-4.6A131.5 131.5 0 0 1 52.8 26.8c8-6 7.5-5.7 12.9-8.7l2.9-1.7c.8-.7 12.1-6.2 13.6-6.7 1.5-.4 3-1 5.8-2A78.4 78.4 0 0 1 96.1 5a133.6 133.6 0 0 1 123 27.3 165.2 165.2 0 0 1 19.1 20.6L242 58a44 44 0 0 1 4 6.2 113 113 0 0 1 11 23.4 129.8 129.8 0 0 1-1.2 92.9c-.7 1.4-.5 1.4-4-1a33.9 33.9 0 0 1-9.4-8 18.8 18.8 0 0 1-3.1-7.2 42 42 0 0 0-2-6c-1-2.7-1.4-4.2-2.5-7.9-.6-2-.6-2.2-.6-18.9 0-18.2 0-18-1.5-24.1a101 101 0 0 0-17.2-37l-1.2-1.5-3.8-4.4a75 75 0 0 0-10.2-10.2 133.3 133.3 0 0 1-5.9-5A96.6 96.6 0 0 0 167 35a106.9 106.9 0 0 0-77.8 4 81.1 81.1 0 0 0-16.8 10.2 60 60 0 0 0-5.7 4.7l-5 4.6a37 37 0 0 0-4.2 4.4l-4.3 5a52.1 52.1 0 0 0-7.1 9.9 65.1 65.1 0 0 0-7.3 13.5l-2 5a88.2 88.2 0 0 0-6.4 37c0 11 .1 12.5 1.3 19 1 5.4.8 9.7-.9 13.7l-1.3 3.2a63.8 63.8 0 0 1-7.1 12.2c-5.4 8.2-7.2 10.2-8.6 9.7z" style="fill:#000;stroke-width:.266213"/></g></svg>