<svg xmlns="http://www.w3.org/2000/svg" width="256" height="256"><path fill="none" d="M0 128v128h128l129-1V1H0zm0 0c0 71 1 100 1 64V64c0-35-1-6-1 65"/><path fill="#1976D2" fill-opacity=".2" fill-rule="evenodd" d="M105 2A130 130 0 0 0 2 149c2 15 9 36 12 36 2 0 10-12 14-20 3-7 3-8 3-14a538 538 0 0 1 3-52 96 96 0 0 1 70-67c10-3 38-3 48-1a101 101 0 0 1 66 54c6 15 8 22 8 42 0 17 0 18 3 27 4 11 6 14 12 19l5 3 2-4c3-6 7-22 7-27 0-3 0-4 1-3l1-15c0-10 0-15-1-14s-1 1-1-1A129 129 0 0 0 105 2m41 63-2 5c0 2 1 3 7 6 7 4 8 5 8 9 0 3-1 4-3 8-6 7-9 12-9 14l3 6c3 2 5 3 9 3 6 1 7 2 9 4a464 464 0 0 1 21 51v6l-8 8-8 8 3 4 3 4 8-3 13-5a73 73 0 0 1 37 3l4-8c0-1-2-4-5-6-5-5-9-13-14-28l-13-28c-14-31-17-40-17-52l-1-8-20-1-20-1c-2-1-3-1-5 1m-91 3-4 4c-1 2-1 2 1 4l5 2c9 3 9 5 3 21l-3 11 3 3c3 3 10 5 12 4l5-5c1-3 3-5 4-5 3 0 12 11 17 20 12 20 20 48 21 74 0 4 1 5 5 7 3 2 4 2 6 1l2-2c0-2 9-11 16-16 7-4 8-6 8-8l-5-17-6-22c0-6 0-7 3-14 3-6 4-8 3-10-2-7-12-9-18-5-2 1-3 2-4 1-10-14-20-31-26-43l-3-7H78c-19 0-22 0-23 2M0 128c0 9 1 12 1 8v-16c0-4-1-1-1 8m52-6c-2 2-6 12-9 22-7 22-14 37-21 44l-5 5 2 4 4 3 6-3c5-3 11-4 29-5 7-1 7-3 2-8-2-3-5-6-5-8-1-5 1-14 6-26 9-22 10-24 4-29-6-4-10-4-13 1m-6 76c-8 1-16 3-18 5s-2 2 0 6l12 12c18 17 41 29 64 33a128 128 0 0 0 128-52l-15-4c-16-2-17-2-31 9-8 7-24 14-34 17-30 7-63-1-88-21-7-6-8-6-18-5"/><path fill="#1976D2" fill-opacity=".7" fill-rule="evenodd" d="m113 1-8 1C90 5 70 13 57 22c-9 6-24 20-31 29C15 66 6 85 2 106c-2 9-2 37 0 47 4 15 10 32 13 31 2 0 13-18 15-24v-17c-4-34 5-61 28-85 17-17 37-27 62-29 42-4 80 18 98 56 7 15 8 21 8 41 0 17 0 17 3 28 3 9 5 11 8 14l9 7c2 0 9-25 9-33l1-4 1-12c0-8 0-11-1-10s-1 1-1-2a123 123 0 0 0-35-75c-18-18-41-31-67-37-6-1-35-2-40-1m34 64c-5 5-4 7 4 11 10 5 11 10 3 20-6 7-7 10-6 13 1 4 6 7 9 7 6 0 9 1 11 5l21 46c2 7 0 11-8 18l-7 8c0 2 4 7 5 7l8-3c7-3 20-6 26-6l11 2c13 3 12 3 15-1 2-5 2-6-3-10-4-3-10-13-15-27-3-11-10-26-18-41-7-15-11-28-11-38l-1-9c-1-1-5-2-20-2l-20-1c-1-1-3 0-4 1m-93 4-3 5 6 4c9 4 9 5 4 20l-3 12c0 3 8 7 12 7 3 0 6-2 6-5l2-3c2-3 2-3 5-1 16 9 36 59 36 87l1 9c0 2 5 5 7 5l10-8 13-12 6-5-5-18c-7-21-8-27-3-36 4-8 4-10-1-14-4-4-9-4-14 0l-3 2-2-3c-6-8-15-22-21-34-5-10-8-14-9-14l-22-1H56zM0 128c0 6 1 9 1 5v-12l-1 7m53-8c-3 4-3 5-10 25-7 22-14 35-20 43-5 5-5 5-4 8 3 4 4 4 10 1 5-4 12-5 24-5 13 0 14-1 6-9-7-8-7-13 3-35l6-17c1-5 1-5-1-8-3-3-7-5-10-5l-4 2m146 78-9 6c-12 10-29 19-44 22a105 105 0 0 1-82-23c-6-5-7-5-11-5-6 0-19 3-23 5-2 0-3 2-3 2 0 2 8 12 15 18a127 127 0 0 0 189-20c0-1-5-3-16-4-11-2-11-2-16-1"/><path fill="#1976D2" fill-rule="evenodd" d="M117 1A129 129 0 0 0 4 159c4 13 8 24 10 24 2 1 14-17 16-23v-14A103 103 0 0 1 89 36a99 99 0 0 1 134 61c3 9 3 11 4 31 1 19 1 21 4 29l5 10 10 8c2 0 9-29 9-37l1-5 1-7c0-4 0-6-1-5s-1 0-1-3A128 128 0 0 0 116 0m30 67-2 4 7 5 8 5c2 4 0 9-5 16-4 4-6 8-6 10l3 5c2 3 4 3 8 4 8 1 9 2 15 16a5136 5136 0 0 0 10 21c4 9 6 14 6 18v5l-8 8-8 10 3 3 3 3 6-3c14-6 31-8 44-3 6 1 6 1 8-1 3-4 2-6-3-11-6-7-8-11-14-27l-14-33c-12-26-15-34-16-46 0-9 0-9-3-10l-16-1h-19c-4-1-5-1-7 2m-92 2-3 5 6 3c9 4 10 6 4 21-4 13-4 13 3 17 6 3 9 2 11-2 5-9 7-9 15 0 14 17 27 50 29 79 1 13 1 13 4 15 5 3 6 2 11-3 2-3 6-8 10-10 12-9 12-9 11-15l-6-16c-3-10-4-13-4-20s0-9 3-14c3-6 3-7 2-9-3-6-11-8-17-4l-4 1c-6-7-18-27-23-37l-6-13h-7l-22-1H57zm1 50c-3 2-5 7-12 27-7 22-13 35-20 42l-5 5 2 3 3 4 6-4c6-3 6-3 33-5 2 0 1-4-2-7-8-7-8-15 1-36 6-13 8-20 7-22 0-2-6-7-9-7h-4m-55 9 1 3v-7l-1 4m42 72c-10 1-15 3-15 5 0 3 15 18 24 25 15 11 33 20 52 24 10 2 38 2 50 0a135 135 0 0 0 78-52l-25-4c-7 0-8 0-19 10a99 99 0 0 1-48 19c-27 3-55-6-76-24-6-6-8-6-21-3"/></svg>